<svg width="40" height="40" viewBox="0 0 40 40" fill="none" xmlns="http://www.w3.org/2000/svg">
<path opacity="0.4" d="M26.808 3.33301L13.1946 3.33301C7.2963 3.33301 3.33464 7.12634 3.33464 12.7747L3.33464 27.2247C3.33464 32.873 7.2963 36.6663 13.1946 36.6663L26.808 36.6663C32.7046 36.6663 36.668 32.8713 36.668 27.223L36.668 12.7747C36.668 7.12634 32.7046 3.33301 26.808 3.33301Z" fill="#9797AA"/>
<path d="M18.5764 12.8679L12.3014 19.1145C11.8297 19.5845 11.8297 20.4162 12.3014 20.8879L18.5764 27.1345C19.0664 27.6212 19.858 27.6195 20.3447 27.1295C20.8314 26.6395 20.8314 25.8495 20.3414 25.3612L16.213 21.2495H26.8047C27.4964 21.2495 28.0547 20.6895 28.0547 19.9995C28.0547 19.3095 27.4964 18.7495 26.8047 18.7495H16.213L20.3414 14.6395C20.5864 14.3945 20.708 14.0745 20.708 13.7529C20.708 13.4345 20.5864 13.1145 20.3447 12.8712C19.858 12.3829 19.0664 12.3812 18.5764 12.8679Z" fill="#9797AA"/>
</svg>
