<svg width="20" height="21" viewBox="0 0 20 21" fill="none" xmlns="http://www.w3.org/2000/svg">
<path d="M16.2172 5.98164C14.5977 5.17227 12.4477 4.74414 10 4.74414C7.55234 4.74414 5.40234 5.17227 3.78281 5.98164C2.16328 6.79102 1.25 7.93008 1.25 9.11914V12.8691C1.25 14.0582 2.17344 15.2012 3.78281 16.0066C5.39219 16.8121 7.55234 17.2441 10 17.2441C12.4477 17.2441 14.5977 16.816 16.2172 16.0066C17.8367 15.1973 18.75 14.0582 18.75 12.8691V9.11914C18.75 7.93008 17.8266 6.78711 16.2172 5.98164ZM9.375 13.4816V15.9816C7.89062 15.9332 6.64062 15.7145 5.625 15.3965V12.9512C6.84932 13.2774 8.10826 13.456 9.375 13.4832V13.4816ZM10.625 13.4816C11.8917 13.4544 13.1507 13.2758 14.375 12.9496V15.3957C13.3594 15.7137 12.1094 15.9324 10.625 15.9809V13.4816ZM2.5 12.8691V11.4262C2.89332 11.7527 3.32393 12.0314 3.78281 12.2566C3.97266 12.3512 4.17344 12.4402 4.375 12.5246V14.9004C3.13828 14.2879 2.5 13.5168 2.5 12.8691ZM15.625 14.9004V12.5246C15.8289 12.4402 16.0273 12.3512 16.2172 12.2566C16.6761 12.0314 17.1067 11.7527 17.5 11.4262V12.8691C17.5 13.5168 16.8617 14.2879 15.625 14.9004Z" fill="#7F838E"/>
</svg>
