<svg width="18" height="19" viewBox="0 0 18 19" fill="none" xmlns="http://www.w3.org/2000/svg">
<path opacity="0.4" d="M14.7327 8.11058C14.7327 8.16158 14.333 13.2172 14.1047 15.3448C13.9617 16.6505 13.12 17.4425 11.8574 17.465C10.8872 17.4868 9.93755 17.4943 9.00317 17.4943C8.01117 17.4943 7.04105 17.4868 6.09937 17.465C4.87906 17.4358 4.03659 16.628 3.90092 15.3448C3.66605 13.2097 3.27362 8.16158 3.26633 8.11058C3.25903 7.95684 3.30863 7.81059 3.40929 7.6921C3.50849 7.5826 3.65146 7.5166 3.80172 7.5166H14.2046C14.3542 7.5166 14.4898 7.5826 14.597 7.6921C14.697 7.81059 14.7473 7.95684 14.7327 8.11058Z" fill="#F23A3A"/>
<path d="M15.75 5.47679C15.75 5.16855 15.5071 4.92706 15.2153 4.92706H13.0286C12.5836 4.92706 12.197 4.61057 12.0978 4.16433L11.9753 3.6176C11.8039 2.95687 11.2123 2.49414 10.5485 2.49414H7.45218C6.78112 2.49414 6.1954 2.95687 6.01743 3.6536L5.90291 4.16508C5.80298 4.61057 5.41639 4.92706 4.97217 4.92706H2.78539C2.49289 4.92706 2.25 5.16855 2.25 5.47679V5.76178C2.25 6.06252 2.49289 6.31151 2.78539 6.31151H15.2153C15.5071 6.31151 15.75 6.06252 15.75 5.76178V5.47679Z" fill="#F23A3A"/>
</svg>
