<svg width="8" height="9" viewBox="0 0 8 9" fill="none" xmlns="http://www.w3.org/2000/svg">
<g opacity="0.7">
<path d="M7.5018 4.49977C7.50199 4.56526 7.48918 4.63013 7.46413 4.69064C7.43908 4.75114 7.40229 4.80608 7.35587 4.85227L4.3543 7.85415C4.26062 7.94727 4.1339 7.99954 4.0018 7.99954C3.86971 7.99954 3.74298 7.94727 3.6493 7.85415L0.649303 4.85227C0.556177 4.75859 0.503906 4.63186 0.503906 4.49977C0.503906 4.36768 0.556177 4.24095 0.649303 4.14727L3.65087 1.1454C3.74455 1.05227 3.87127 1 4.00337 1C4.13546 1 4.26218 1.05227 4.35587 1.1454L7.35743 4.14727C7.40357 4.19359 7.44008 4.24859 7.46486 4.30909C7.48964 4.36959 7.50219 4.43439 7.5018 4.49977Z" fill="#2A3143"/>
</g>
</svg>
