<svg width="17" height="17" viewBox="0 0 17 17" fill="none" xmlns="http://www.w3.org/2000/svg">
<path d="M8.28385 9.65625C8.65204 9.65625 8.95052 9.35777 8.95052 8.98958C8.95052 8.62139 8.65204 8.32292 8.28385 8.32292C7.91566 8.32292 7.61719 8.62139 7.61719 8.98958C7.61719 9.35777 7.91566 9.65625 8.28385 9.65625Z" fill="#B3B3B3"/>
<path d="M8.28385 4.98958C8.65204 4.98958 8.95052 4.69111 8.95052 4.32292C8.95052 3.95473 8.65204 3.65625 8.28385 3.65625C7.91566 3.65625 7.61719 3.95473 7.61719 4.32292C7.61719 4.69111 7.91566 4.98958 8.28385 4.98958Z" fill="#B3B3B3"/>
<path d="M8.28385 14.3229C8.65204 14.3229 8.95052 14.0244 8.95052 13.6562C8.95052 13.2881 8.65204 12.9896 8.28385 12.9896C7.91566 12.9896 7.61719 13.2881 7.61719 13.6562C7.61719 14.0244 7.91566 14.3229 8.28385 14.3229Z" fill="#B3B3B3"/>
<path d="M8.28385 9.65625C8.65204 9.65625 8.95052 9.35777 8.95052 8.98958C8.95052 8.62139 8.65204 8.32292 8.28385 8.32292C7.91566 8.32292 7.61719 8.62139 7.61719 8.98958C7.61719 9.35777 7.91566 9.65625 8.28385 9.65625Z" stroke="#B3B3B3" stroke-linecap="round" stroke-linejoin="round"/>
<path d="M8.28385 4.98958C8.65204 4.98958 8.95052 4.69111 8.95052 4.32292C8.95052 3.95473 8.65204 3.65625 8.28385 3.65625C7.91566 3.65625 7.61719 3.95473 7.61719 4.32292C7.61719 4.69111 7.91566 4.98958 8.28385 4.98958Z" stroke="#B3B3B3" stroke-linecap="round" stroke-linejoin="round"/>
<path d="M8.28385 14.3229C8.65204 14.3229 8.95052 14.0244 8.95052 13.6562C8.95052 13.2881 8.65204 12.9896 8.28385 12.9896C7.91566 12.9896 7.61719 13.2881 7.61719 13.6562C7.61719 14.0244 7.91566 14.3229 8.28385 14.3229Z" stroke="#B3B3B3" stroke-linecap="round" stroke-linejoin="round"/>
</svg>
