<svg width="32" height="32" viewBox="0 0 32 32" fill="none" xmlns="http://www.w3.org/2000/svg">
<g id="dots-vertical">
<g id="Icon">
<path d="M15.9974 17.333C16.7338 17.333 17.3307 16.7361 17.3307 15.9997C17.3307 15.2633 16.7338 14.6663 15.9974 14.6663C15.261 14.6663 14.6641 15.2633 14.6641 15.9997C14.6641 16.7361 15.261 17.333 15.9974 17.333Z" stroke="#565656" stroke-width="2" stroke-linecap="round" stroke-linejoin="round"/>
<path d="M15.9974 7.99967C16.7338 7.99967 17.3307 7.40272 17.3307 6.66634C17.3307 5.92996 16.7338 5.33301 15.9974 5.33301C15.261 5.33301 14.6641 5.92996 14.6641 6.66634C14.6641 7.40272 15.261 7.99967 15.9974 7.99967Z" stroke="#565656" stroke-width="2" stroke-linecap="round" stroke-linejoin="round"/>
<path d="M15.9974 26.6663C16.7338 26.6663 17.3307 26.0694 17.3307 25.333C17.3307 24.5966 16.7338 23.9997 15.9974 23.9997C15.261 23.9997 14.6641 24.5966 14.6641 25.333C14.6641 26.0694 15.261 26.6663 15.9974 26.6663Z" stroke="#565656" stroke-width="2" stroke-linecap="round" stroke-linejoin="round"/>
</g>
</g>
</svg>
