<svg width="24" height="24" viewBox="0 0 24 24" fill="none" xmlns="http://www.w3.org/2000/svg">
<path d="M2.85858 2.87902L15.4293 1.08321C15.7027 1.04416 15.9559 1.23411 15.995 1.50747C15.9983 1.53089 16 1.55452 16 1.57818V22.4252C16 22.7014 15.7761 22.9252 15.5 22.9252C15.4763 22.9252 15.4527 22.9235 15.4293 22.9202L2.85858 21.1244C2.36593 21.054 2 20.6321 2 20.1344V3.86897C2 3.37132 2.36593 2.9494 2.85858 2.87902ZM17 3.00168H21C21.5523 3.00168 22 3.44939 22 4.00168V20.0017C22 20.554 21.5523 21.0017 21 21.0017H17V3.00168ZM10.2 12.0017L13 8.00168H10.6L9 10.2874L7.39999 8.00168H5L7.8 12.0017L5 16.0017H7.39999L9 13.716L10.6 16.0017H13L10.2 12.0017Z" fill="#005503"/>
</svg>
