<svg width="16" height="17" viewBox="0 0 16 17" fill="none" xmlns="http://www.w3.org/2000/svg">
<path d="M5.33333 2.98926H5.2C4.0799 2.98926 3.51984 2.98926 3.09202 3.20724C2.71569 3.39899 2.40973 3.70495 2.21799 4.08128C2 4.5091 2 5.06915 2 6.18926V6.32259M5.33333 14.9893H5.2C4.0799 14.9893 3.51984 14.9893 3.09202 14.7713C2.71569 14.5795 2.40973 14.2736 2.21799 13.8972C2 13.4694 2 12.9094 2 11.7893V11.6559M14 6.32259V6.18926C14 5.06915 14 4.5091 13.782 4.08128C13.5903 3.70495 13.2843 3.39899 12.908 3.20724C12.4802 2.98926 11.9201 2.98926 10.8 2.98926H10.6667M14 11.6559V11.7893C14 12.9094 14 13.4694 13.782 13.8972C13.5903 14.2736 13.2843 14.5795 12.908 14.7713C12.4802 14.9893 11.9201 14.9893 10.8 14.9893H10.6667M5 6.32259V7.32259M11 6.32259V7.32259M7.33333 9.38932C7.86667 9.38932 8.33333 8.92266 8.33333 8.38932V6.32259M10.1335 11.1226C8.93346 12.3226 7.00013 12.3226 5.80013 11.1226" stroke="#B3B3B3" stroke-linecap="round" stroke-linejoin="round"/>
</svg>
