<svg width="15" height="15" viewBox="0 0 15 15" fill="none" xmlns="http://www.w3.org/2000/svg">
<g id="Icon">
<path id="Vector" d="M13.3047 5.69922C13.3047 5.87327 13.2355 6.04019 13.1125 6.16326C12.9894 6.28633 12.8225 6.35547 12.6484 6.35547C12.4744 6.35547 12.3075 6.28633 12.1844 6.16326C12.0613 6.04019 11.9922 5.87327 11.9922 5.69922V3.78516L8.73773 7.03961C8.61445 7.16289 8.44724 7.23215 8.27289 7.23215C8.09854 7.23215 7.93133 7.16289 7.80805 7.03961C7.68476 6.91632 7.6155 6.74912 7.6155 6.57477C7.6155 6.40042 7.68476 6.23321 7.80805 6.10992L11.0625 2.85547H9.14844C8.97439 2.85547 8.80747 2.78633 8.6844 2.66326C8.56133 2.54019 8.49219 2.37327 8.49219 2.19922C8.49219 2.02517 8.56133 1.85825 8.6844 1.73518C8.80747 1.61211 8.97439 1.54297 9.14844 1.54297H12.6484C12.8225 1.54297 12.9894 1.61211 13.1125 1.73518C13.2355 1.85825 13.3047 2.02517 13.3047 2.19922V5.69922ZM10.8984 7.01172C10.7244 7.01172 10.5575 7.08086 10.4344 7.20393C10.3113 7.327 10.2422 7.49392 10.2422 7.66797V11.168H3.67969V4.60547H7.17969C7.35374 4.60547 7.52066 4.53633 7.64373 4.41326C7.7668 4.29019 7.83594 4.12327 7.83594 3.94922C7.83594 3.77517 7.7668 3.60825 7.64373 3.48518C7.52066 3.36211 7.35374 3.29297 7.17969 3.29297H3.46094C3.17086 3.29297 2.89266 3.4082 2.68754 3.61332C2.48242 3.81844 2.36719 4.09664 2.36719 4.38672V11.3867C2.36719 11.6768 2.48242 11.955 2.68754 12.1601C2.89266 12.3652 3.17086 12.4805 3.46094 12.4805H10.4609C10.751 12.4805 11.0292 12.3652 11.2343 12.1601C11.4395 11.955 11.5547 11.6768 11.5547 11.3867V7.66797C11.5547 7.49392 11.4855 7.327 11.3625 7.20393C11.2394 7.08086 11.0725 7.01172 10.8984 7.01172Z" fill="#4B4DED"/>
</g>
</svg>
