<svg width="117" height="29" viewBox="0 0 117 29" fill="none" xmlns="http://www.w3.org/2000/svg">
<path d="M1.7205 25.8594V8.41588H4.88043V23.2105H12.5631V25.8594H1.7205ZM20.876 26.1149C19.5984 26.1149 18.4911 25.8338 17.5542 25.2717C16.6173 24.7095 15.8905 23.9231 15.3738 22.9124C14.8627 21.9017 14.6072 20.7206 14.6072 19.3692C14.6072 18.0178 14.8627 16.8338 15.3738 15.8174C15.8905 14.801 16.6173 14.0118 17.5542 13.4496C18.4911 12.8875 19.5984 12.6064 20.876 12.6064C22.1536 12.6064 23.2608 12.8875 24.1977 13.4496C25.1346 14.0118 25.8586 14.801 26.3697 15.8174C26.8864 16.8338 27.1447 18.0178 27.1447 19.3692C27.1447 20.7206 26.8864 21.9017 26.3697 22.9124C25.8586 23.9231 25.1346 24.7095 24.1977 25.2717C23.2608 25.8338 22.1536 26.1149 20.876 26.1149ZM20.893 23.6449C21.5858 23.6449 22.1649 23.4546 22.6306 23.0742C23.0962 22.6881 23.4425 22.1714 23.6697 21.5241C23.9025 20.8767 24.0189 20.1556 24.0189 19.3607C24.0189 18.56 23.9025 17.836 23.6697 17.1887C23.4425 16.5357 23.0962 16.0162 22.6306 15.6301C22.1649 15.2439 21.5858 15.0509 20.893 15.0509C20.1832 15.0509 19.5927 15.2439 19.1214 15.6301C18.6558 16.0162 18.3066 16.5357 18.0738 17.1887C17.8467 17.836 17.7331 18.56 17.7331 19.3607C17.7331 20.1556 17.8467 20.8767 18.0738 21.5241C18.3066 22.1714 18.6558 22.6881 19.1214 23.0742C19.5927 23.4546 20.1832 23.6449 20.893 23.6449ZM32.845 18.1938V25.8594H29.7617V8.41588H32.7768V14.9998H32.9301C33.2368 14.2616 33.7109 13.6796 34.3525 13.2537C34.9998 12.8222 35.8232 12.6064 36.8226 12.6064C37.7311 12.6064 38.5232 12.7966 39.1989 13.1771C39.8746 13.5575 40.397 14.114 40.7661 14.8465C41.1408 15.579 41.3282 16.4733 41.3282 17.5294V25.8594H38.245V18.0064C38.245 17.1263 38.0178 16.442 37.5636 15.9537C37.115 15.4597 36.4847 15.2127 35.6727 15.2127C35.1276 15.2127 34.6393 15.332 34.2077 15.5704C33.7819 15.8032 33.4469 16.1411 33.2027 16.584C32.9642 17.0269 32.845 17.5635 32.845 18.1938ZM48.2358 26.1234C47.4068 26.1234 46.6601 25.9758 45.9957 25.6805C45.3371 25.3796 44.8147 24.9367 44.4285 24.3518C44.0481 23.767 43.8579 23.0458 43.8579 22.1884C43.8579 21.4502 43.9942 20.8398 44.2667 20.3572C44.5393 19.8745 44.9112 19.4884 45.3825 19.1988C45.8538 18.9092 46.3847 18.6906 46.9752 18.543C47.5714 18.3897 48.1875 18.2789 48.8235 18.2108C49.59 18.1313 50.2118 18.0603 50.6888 17.9979C51.1657 17.9297 51.5121 17.8275 51.7279 17.6913C51.9493 17.5493 52.0601 17.3307 52.0601 17.0354V16.9843C52.0601 16.3427 51.8698 15.8458 51.4894 15.4938C51.109 15.1417 50.561 14.9657 49.8456 14.9657C49.0904 14.9657 48.4913 15.1304 48.0484 15.4597C47.6112 15.789 47.3159 16.178 47.1626 16.6266L44.2837 16.2178C44.5109 15.4228 44.8856 14.7585 45.408 14.2247C45.9304 13.6853 46.5692 13.2821 47.3244 13.0152C48.0796 12.7427 48.9143 12.6064 49.8285 12.6064C50.4588 12.6064 51.0863 12.6802 51.7109 12.8279C52.3355 12.9755 52.9061 13.2197 53.4228 13.5603C53.9396 13.8954 54.3541 14.3525 54.6664 14.9316C54.9843 15.5108 55.1433 16.2348 55.1433 17.1036V25.8594H52.1793V24.0622H52.0771C51.8897 24.4256 51.6257 24.7663 51.285 25.0843C50.95 25.3966 50.5269 25.6493 50.0159 25.8423C49.5105 26.0297 48.9172 26.1234 48.2358 26.1234ZM49.0364 23.8578C49.6553 23.8578 50.1919 23.7357 50.6462 23.4916C51.1004 23.2417 51.4497 22.9124 51.6938 22.5035C51.9437 22.0947 52.0686 21.649 52.0686 21.1663V19.6247C51.9721 19.7042 51.8074 19.778 51.5746 19.8461C51.3474 19.9143 51.0919 19.9739 50.808 20.025C50.5241 20.0761 50.243 20.1215 49.9648 20.1613C49.6866 20.201 49.4452 20.2351 49.2408 20.2635C48.7809 20.3259 48.3692 20.4282 48.0058 20.5701C47.6424 20.7121 47.3557 20.9108 47.1456 21.1663C46.9355 21.4162 46.8304 21.7398 46.8304 22.1373C46.8304 22.7051 47.0377 23.1338 47.4522 23.4234C47.8667 23.713 48.3948 23.8578 49.0364 23.8578ZM60.9436 25.8594L57.2471 12.7768H60.39L62.6897 21.9755H62.8089L65.1597 12.7768H68.2685L70.6193 21.9244H70.7471L73.0127 12.7768H76.1641L72.4591 25.8594H69.248L66.795 17.0184H66.6162L64.1632 25.8594H60.9436ZM82.0815 26.1234C81.2525 26.1234 80.5058 25.9758 79.8415 25.6805C79.1828 25.3796 78.6604 24.9367 78.2743 24.3518C77.8938 23.767 77.7036 23.0458 77.7036 22.1884C77.7036 21.4502 77.8399 20.8398 78.1125 20.3572C78.385 19.8745 78.7569 19.4884 79.2282 19.1988C79.6995 18.9092 80.2304 18.6906 80.821 18.543C81.4172 18.3897 82.0333 18.2789 82.6692 18.2108C83.4358 18.1313 84.0576 18.0603 84.5345 17.9979C85.0115 17.9297 85.3579 17.8275 85.5736 17.6913C85.7951 17.5493 85.9058 17.3307 85.9058 17.0354V16.9843C85.9058 16.3427 85.7156 15.8458 85.3352 15.4938C84.9547 15.1417 84.4068 14.9657 83.6913 14.9657C82.9361 14.9657 82.3371 15.1304 81.8942 15.4597C81.4569 15.789 81.1617 16.178 81.0084 16.6266L78.1295 16.2178C78.3566 15.4228 78.7314 14.7585 79.2538 14.2247C79.7762 13.6853 80.415 13.2821 81.1702 13.0152C81.9254 12.7427 82.7601 12.6064 83.6743 12.6064C84.3046 12.6064 84.932 12.6802 85.5566 12.8279C86.1812 12.9755 86.7519 13.2197 87.2686 13.5603C87.7853 13.8954 88.1998 14.3525 88.5121 14.9316C88.8301 15.5108 88.9891 16.2348 88.9891 17.1036V25.8594H86.0251V24.0622H85.9229C85.7355 24.4256 85.4714 24.7663 85.1307 25.0843C84.7957 25.3966 84.3727 25.6493 83.8617 25.8423C83.3563 26.0297 82.7629 26.1234 82.0815 26.1234ZM82.8822 23.8578C83.5011 23.8578 84.0377 23.7357 84.4919 23.4916C84.9462 23.2417 85.2954 22.9124 85.5396 22.5035C85.7894 22.0947 85.9143 21.649 85.9143 21.1663V19.6247C85.8178 19.7042 85.6531 19.778 85.4203 19.8461C85.1932 19.9143 84.9377 19.9739 84.6538 20.025C84.3699 20.0761 84.0888 20.1215 83.8106 20.1613C83.5323 20.201 83.291 20.2351 83.0866 20.2635C82.6266 20.3259 82.215 20.4282 81.8516 20.5701C81.4882 20.7121 81.2014 20.9108 80.9913 21.1663C80.7812 21.4162 80.6762 21.7398 80.6762 22.1373C80.6762 22.7051 80.8834 23.1338 81.2979 23.4234C81.7125 23.713 82.2405 23.8578 82.8822 23.8578ZM95.1727 8.41588V25.8594H92.0894V8.41588H95.1727ZM101.427 8.41588V25.8594H98.3432V8.41588H101.427ZM108.362 26.1234C107.533 26.1234 106.786 25.9758 106.122 25.6805C105.463 25.3796 104.941 24.9367 104.555 24.3518C104.174 23.767 103.984 23.0458 103.984 22.1884C103.984 21.4502 104.12 20.8398 104.393 20.3572C104.665 19.8745 105.037 19.4884 105.508 19.1988C105.98 18.9092 106.511 18.6906 107.101 18.543C107.697 18.3897 108.313 18.2789 108.949 18.2108C109.716 18.1313 110.338 18.0603 110.815 17.9979C111.292 17.9297 111.638 17.8275 111.854 17.6913C112.075 17.5493 112.186 17.3307 112.186 17.0354V16.9843C112.186 16.3427 111.996 15.8458 111.615 15.4938C111.235 15.1417 110.687 14.9657 109.972 14.9657C109.216 14.9657 108.617 15.1304 108.174 15.4597C107.737 15.789 107.442 16.178 107.289 16.6266L104.41 16.2178C104.637 15.4228 105.012 14.7585 105.534 14.2247C106.056 13.6853 106.695 13.2821 107.45 13.0152C108.206 12.7427 109.04 12.6064 109.955 12.6064C110.585 12.6064 111.212 12.6802 111.837 12.8279C112.461 12.9755 113.032 13.2197 113.549 13.5603C114.066 13.8954 114.48 14.3525 114.792 14.9316C115.11 15.5108 115.269 16.2348 115.269 17.1036V25.8594H112.305V24.0622H112.203C112.016 24.4256 111.752 24.7663 111.411 25.0843C111.076 25.3966 110.653 25.6493 110.142 25.8423C109.637 26.0297 109.043 26.1234 108.362 26.1234ZM109.162 23.8578C109.781 23.8578 110.318 23.7357 110.772 23.4916C111.226 23.2417 111.576 22.9124 111.82 22.5035C112.07 22.0947 112.195 21.649 112.195 21.1663V19.6247C112.098 19.7042 111.933 19.778 111.701 19.8461C111.473 19.9143 111.218 19.9739 110.934 20.025C110.65 20.0761 110.369 20.1215 110.091 20.1613C109.813 20.201 109.571 20.2351 109.367 20.2635C108.907 20.3259 108.495 20.4282 108.132 20.5701C107.768 20.7121 107.482 20.9108 107.272 21.1663C107.061 21.4162 106.956 21.7398 106.956 22.1373C106.956 22.7051 107.164 23.1338 107.578 23.4234C107.993 23.713 108.521 23.8578 109.162 23.8578Z" fill="url(#paint0_linear_2533_31488)"/>
<rect x="1.66992" y="0.0234375" width="3.17494" height="25.5666" fill="url(#paint1_linear_2533_31488)"/>
<defs>
<linearGradient id="paint0_linear_2533_31488" x1="58.5821" y1="9.87097" x2="58.5007" y2="28.8594" gradientUnits="userSpaceOnUse">
<stop offset="0.242248" stop-color="#131415"/>
<stop offset="0.590876" stop-color="#7F8286" stop-opacity="0.92"/>
<stop offset="0.748928"/>
</linearGradient>
<linearGradient id="paint1_linear_2533_31488" x1="3.25739" y1="0.0234375" x2="3.25739" y2="25.59" gradientUnits="userSpaceOnUse">
<stop offset="0.237575" stop-color="#141516"/>
<stop offset="0.740275" stop-color="#808286"/>
<stop offset="0.953125" stop-color="#040404"/>
</linearGradient>
</defs>
</svg>
