<svg width="116" height="29" viewBox="0 0 116 29" fill="none" xmlns="http://www.w3.org/2000/svg">
<rect x="97" width="3.10173" height="25.3778" fill="url(#paint0_linear_4237_36729)"/>
<path d="M1.69906 25.7969V8.57076H4.81961V23.181H12.4065V25.7969H1.69906ZM20.6158 26.0492C19.3541 26.0492 18.2607 25.7716 17.3355 25.2165C16.4102 24.6614 15.6925 23.8847 15.1822 22.8866C14.6775 21.8885 14.4252 20.7221 14.4252 19.3876C14.4252 18.053 14.6775 16.8838 15.1822 15.8801C15.6925 14.8764 16.4102 14.0969 17.3355 13.5418C18.2607 12.9866 19.3541 12.7091 20.6158 12.7091C21.8775 12.7091 22.971 12.9866 23.8962 13.5418C24.8214 14.0969 25.5364 14.8764 26.041 15.8801C26.5513 16.8838 26.8065 18.053 26.8065 19.3876C26.8065 20.7221 26.5513 21.8885 26.041 22.8866C25.5364 23.8847 24.8214 24.6614 23.8962 25.2165C22.971 25.7716 21.8775 26.0492 20.6158 26.0492ZM20.6326 23.61C21.3168 23.61 21.8887 23.4221 22.3485 23.0464C22.8083 22.6651 23.1504 22.1548 23.3747 21.5156C23.6046 20.8763 23.7195 20.1642 23.7195 19.3791C23.7195 18.5885 23.6046 17.8735 23.3747 17.2343C23.1504 16.5894 22.8083 16.0763 22.3485 15.695C21.8887 15.3137 21.3168 15.1231 20.6326 15.1231C19.9317 15.1231 19.3485 15.3137 18.8831 15.695C18.4233 16.0763 18.0784 16.5894 17.8485 17.2343C17.6242 17.8735 17.5121 18.5885 17.5121 19.3791C17.5121 20.1642 17.6242 20.8763 17.8485 21.5156C18.0784 22.1548 18.4233 22.6651 18.8831 23.0464C19.3485 23.4221 19.9317 23.61 20.6326 23.61ZM32.4356 18.2268V25.7969H29.3908V8.57076H32.3684V15.0726H32.5198C32.8226 14.3436 33.2908 13.7689 33.9244 13.3483C34.5637 12.9222 35.3768 12.7091 36.3637 12.7091C37.2609 12.7091 38.0431 12.8969 38.7104 13.2726C39.3777 13.6483 39.8936 14.1978 40.258 14.9212C40.6281 15.6446 40.8132 16.5277 40.8132 17.5707V25.7969H37.7683V18.0418C37.7683 17.1726 37.544 16.4969 37.0954 16.0147C36.6524 15.5268 36.03 15.2829 35.2282 15.2829C34.6898 15.2829 34.2076 15.4006 33.7814 15.6362C33.3609 15.8661 33.03 16.1997 32.7889 16.6371C32.5534 17.0745 32.4356 17.6044 32.4356 18.2268ZM47.6347 26.0576C46.816 26.0576 46.0786 25.9118 45.4225 25.6202C44.772 25.323 44.2562 24.8857 43.8749 24.3081C43.4992 23.7305 43.3113 23.0184 43.3113 22.1717C43.3113 21.4427 43.4459 20.8399 43.715 20.3632C43.9842 19.8866 44.3515 19.5053 44.8169 19.2193C45.2823 18.9333 45.8066 18.7175 46.3898 18.5717C46.9786 18.4203 47.587 18.3109 48.215 18.2436C48.972 18.1651 49.586 18.095 50.0571 18.0333C50.5281 17.9661 50.8702 17.8651 51.0832 17.7305C51.3019 17.5904 51.4113 17.3745 51.4113 17.0829V17.0324C51.4113 16.3988 51.2234 15.9081 50.8477 15.5605C50.472 15.2128 49.9309 15.039 49.2244 15.039C48.4786 15.039 47.887 15.2016 47.4496 15.5268C47.0178 15.852 46.7262 16.2362 46.5748 16.6791L43.7319 16.2754C43.9562 15.4904 44.3263 14.8343 44.8421 14.3072C45.358 13.7745 45.9889 13.3764 46.7347 13.1128C47.4804 12.8436 48.3047 12.7091 49.2075 12.7091C49.83 12.7091 50.4496 12.782 51.0664 12.9278C51.6832 13.0736 52.2468 13.3147 52.7571 13.6511C53.2673 13.982 53.6767 14.4334 53.9851 15.0053C54.2991 15.5773 54.4561 16.2922 54.4561 17.1502V25.7969H51.529V24.0221H51.4281C51.2431 24.381 50.9823 24.7174 50.6459 25.0315C50.315 25.3399 49.8973 25.5894 49.3926 25.7801C48.8935 25.9651 48.3075 26.0576 47.6347 26.0576ZM48.4253 23.8202C49.0365 23.8202 49.5664 23.6997 50.015 23.4586C50.4636 23.2118 50.8085 22.8866 51.0496 22.4829C51.2963 22.0791 51.4197 21.6389 51.4197 21.1623V19.6399C51.3244 19.7184 51.1617 19.7913 50.9318 19.8586C50.7075 19.9259 50.4552 19.9847 50.1748 20.0352C49.8945 20.0857 49.6169 20.1305 49.3421 20.1698C49.0674 20.209 48.829 20.2427 48.6272 20.2707C48.173 20.3324 47.7664 20.4333 47.4076 20.5735C47.0487 20.7137 46.7655 20.91 46.558 21.1623C46.3505 21.409 46.2468 21.7287 46.2468 22.1212C46.2468 22.6819 46.4515 23.1053 46.8608 23.3913C47.2702 23.6773 47.7917 23.8202 48.4253 23.8202ZM60.1841 25.7969L56.5337 12.8773H59.6374L61.9084 21.9614H62.0262L64.3477 12.8773H67.4178L69.7393 21.9109H69.8654L72.1028 12.8773H75.2149L71.5561 25.7969H68.3851L65.9626 17.0661H65.786L63.3636 25.7969H60.1841ZM81.0586 26.0576C80.2399 26.0576 79.5025 25.9118 78.8465 25.6202C78.196 25.323 77.6801 24.8857 77.2988 24.3081C76.9231 23.7305 76.7353 23.0184 76.7353 22.1717C76.7353 21.4427 76.8698 20.8399 77.139 20.3632C77.4082 19.8866 77.7754 19.5053 78.2409 19.2193C78.7063 18.9333 79.2306 18.7175 79.8138 18.5717C80.4025 18.4203 81.0109 18.3109 81.639 18.2436C82.396 18.1651 83.01 18.095 83.481 18.0333C83.9521 17.9661 84.2941 17.8651 84.5072 17.7305C84.7259 17.5904 84.8352 17.3745 84.8352 17.0829V17.0324C84.8352 16.3988 84.6474 15.9081 84.2717 15.5605C83.896 15.2128 83.3549 15.039 82.6483 15.039C81.9025 15.039 81.3109 15.2016 80.8736 15.5268C80.4418 15.852 80.1502 16.2362 79.9988 16.6791L77.1558 16.2754C77.3801 15.4904 77.7502 14.8343 78.2661 14.3072C78.782 13.7745 79.4128 13.3764 80.1586 13.1128C80.9044 12.8436 81.7287 12.7091 82.6315 12.7091C83.2539 12.7091 83.8736 12.782 84.4904 12.9278C85.1072 13.0736 85.6707 13.3147 86.181 13.6511C86.6913 13.982 87.1006 14.4334 87.4091 15.0053C87.7231 15.5773 87.8801 16.2922 87.8801 17.1502V25.7969H84.953V24.0221H84.8521C84.667 24.381 84.4063 24.7174 84.0698 25.0315C83.739 25.3399 83.3212 25.5894 82.8165 25.7801C82.3175 25.9651 81.7315 26.0576 81.0586 26.0576ZM81.8493 23.8202C82.4605 23.8202 82.9904 23.6997 83.439 23.4586C83.8876 23.2118 84.2324 22.8866 84.4735 22.4829C84.7203 22.0791 84.8436 21.6389 84.8436 21.1623V19.6399C84.7483 19.7184 84.5857 19.7913 84.3558 19.8586C84.1315 19.9259 83.8792 19.9847 83.5988 20.0352C83.3184 20.0857 83.0408 20.1305 82.7661 20.1698C82.4913 20.209 82.253 20.2427 82.0511 20.2707C81.5969 20.3324 81.1904 20.4333 80.8315 20.5735C80.4726 20.7137 80.1895 20.91 79.982 21.1623C79.7745 21.409 79.6708 21.7287 79.6708 22.1212C79.6708 22.6819 79.8754 23.1053 80.2848 23.3913C80.6941 23.6773 81.2156 23.8202 81.8493 23.8202ZM93.9866 8.57076V25.7969H90.9418V8.57076H93.9866ZM100.163 8.57076V25.7969H97.1177V8.57076H100.163ZM107.011 26.0576C106.193 26.0576 105.455 25.9118 104.799 25.6202C104.149 25.323 103.633 24.8857 103.252 24.3081C102.876 23.7305 102.688 23.0184 102.688 22.1717C102.688 21.4427 102.823 20.8399 103.092 20.3632C103.361 19.8866 103.728 19.5053 104.194 19.2193C104.659 18.9333 105.183 18.7175 105.766 18.5717C106.355 18.4203 106.964 18.3109 107.592 18.2436C108.349 18.1651 108.963 18.095 109.434 18.0333C109.905 17.9661 110.247 17.8651 110.46 17.7305C110.679 17.5904 110.788 17.3745 110.788 17.0829V17.0324C110.788 16.3988 110.6 15.9081 110.224 15.5605C109.849 15.2128 109.308 15.039 108.601 15.039C107.855 15.039 107.264 15.2016 106.826 15.5268C106.395 15.852 106.103 16.2362 105.952 16.6791L103.109 16.2754C103.333 15.4904 103.703 14.8343 104.219 14.3072C104.735 13.7745 105.366 13.3764 106.111 13.1128C106.857 12.8436 107.681 12.7091 108.584 12.7091C109.207 12.7091 109.826 12.782 110.443 12.9278C111.06 13.0736 111.623 13.3147 112.134 13.6511C112.644 13.982 113.053 14.4334 113.362 15.0053C113.676 15.5773 113.833 16.2922 113.833 17.1502V25.7969H110.906V24.0221H110.805C110.62 24.381 110.359 24.7174 110.023 25.0315C109.692 25.3399 109.274 25.5894 108.769 25.7801C108.27 25.9651 107.684 26.0576 107.011 26.0576ZM107.802 23.8202C108.413 23.8202 108.943 23.6997 109.392 23.4586C109.84 23.2118 110.185 22.8866 110.426 22.4829C110.673 22.0791 110.796 21.6389 110.796 21.1623V19.6399C110.701 19.7184 110.538 19.7913 110.309 19.8586C110.084 19.9259 109.832 19.9847 109.551 20.0352C109.271 20.0857 108.994 20.1305 108.719 20.1698C108.444 20.209 108.206 20.2427 108.004 20.2707C107.55 20.3324 107.143 20.4333 106.784 20.5735C106.425 20.7137 106.142 20.91 105.935 21.1623C105.727 21.409 105.623 21.7287 105.623 22.1212C105.623 22.6819 105.828 23.1053 106.237 23.3913C106.647 23.6773 107.168 23.8202 107.802 23.8202Z" fill="url(#paint1_linear_4237_36729)"/>
<rect x="1.69141" width="3.10173" height="25.3778" fill="url(#paint2_linear_4237_36729)"/>
<defs>
<linearGradient id="paint0_linear_4237_36729" x1="98.5509" y1="0" x2="98.5509" y2="25.3778" gradientUnits="userSpaceOnUse">
<stop offset="0.359375" stop-color="#D6D7D6"/>
<stop offset="0.953125" stop-color="#9D9E9C"/>
</linearGradient>
<linearGradient id="paint1_linear_4237_36729" x1="58" y1="4.79687" x2="58" y2="28.7969" gradientUnits="userSpaceOnUse">
<stop offset="0.359375" stop-color="#D6D7D6"/>
<stop offset="0.5625" stop-color="#E3E4E2" stop-opacity="0.6"/>
<stop offset="0.953125" stop-color="#FDFFFB" stop-opacity="0.66"/>
</linearGradient>
<linearGradient id="paint2_linear_4237_36729" x1="3.24227" y1="0" x2="3.24227" y2="25.3778" gradientUnits="userSpaceOnUse">
<stop offset="0.27812" stop-color="#D6D7D6"/>
<stop offset="0.64652" stop-color="#919290"/>
<stop offset="0.953125" stop-color="#9D9E9C"/>
</linearGradient>
</defs>
</svg>
