<svg width="15" height="14" viewBox="0 0 15 14" fill="none" xmlns="http://www.w3.org/2000/svg">
<path d="M12.8047 5.6875C12.8047 5.86155 12.7355 6.02847 12.6125 6.15154C12.4894 6.27461 12.3225 6.34375 12.1484 6.34375C11.9744 6.34375 11.8075 6.27461 11.6844 6.15154C11.5613 6.02847 11.4922 5.86155 11.4922 5.6875V3.77344L8.23773 7.02789C8.11445 7.15117 7.94724 7.22043 7.77289 7.22043C7.59854 7.22043 7.43133 7.15117 7.30805 7.02789C7.18476 6.90461 7.1155 6.7374 7.1155 6.56305C7.1155 6.3887 7.18476 6.22149 7.30805 6.0982L10.5625 2.84375H8.64844C8.47439 2.84375 8.30747 2.77461 8.1844 2.65154C8.06133 2.52847 7.99219 2.36155 7.99219 2.1875C7.99219 2.01345 8.06133 1.84653 8.1844 1.72346C8.30747 1.60039 8.47439 1.53125 8.64844 1.53125H12.1484C12.3225 1.53125 12.4894 1.60039 12.6125 1.72346C12.7355 1.84653 12.8047 2.01345 12.8047 2.1875V5.6875ZM10.3984 7C10.2244 7 10.0575 7.06914 9.9344 7.19221C9.81133 7.31528 9.74219 7.4822 9.74219 7.65625V11.1562H3.17969V4.59375H6.67969C6.85374 4.59375 7.02066 4.52461 7.14373 4.40154C7.2668 4.27847 7.33594 4.11155 7.33594 3.9375C7.33594 3.76345 7.2668 3.59653 7.14373 3.47346C7.02066 3.35039 6.85374 3.28125 6.67969 3.28125H2.96094C2.67086 3.28125 2.39266 3.39648 2.18754 3.6016C1.98242 3.80672 1.86719 4.08492 1.86719 4.375V11.375C1.86719 11.6651 1.98242 11.9433 2.18754 12.1484C2.39266 12.3535 2.67086 12.4688 2.96094 12.4688H9.96094C10.251 12.4688 10.5292 12.3535 10.7343 12.1484C10.9395 11.9433 11.0547 11.6651 11.0547 11.375V7.65625C11.0547 7.4822 10.9855 7.31528 10.8625 7.19221C10.7394 7.06914 10.5725 7 10.3984 7Z" fill="#4B4DED"/>
</svg>
