<svg width="20" height="20" viewBox="0 0 20 20" fill="none" xmlns="http://www.w3.org/2000/svg">
<g opacity="0.9">
<path fill-rule="evenodd" clip-rule="evenodd" d="M7.24206 4.1C8.85735 4.48881 10.0798 5.73073 10.3558 7.264C10.3875 7.43926 10.5503 7.56348 10.735 7.56348C10.7562 7.56348 10.7775 7.56191 10.7992 7.55843C11.009 7.52557 11.1504 7.34044 11.1152 7.14505C10.7886 5.33267 9.34387 3.86451 7.43423 3.40509C7.22823 3.3554 7.01838 3.47082 6.96533 3.66295C6.91246 3.85464 7.03624 4.05048 7.24206 4.1Z" fill="#5C5C77"/>
<path fill-rule="evenodd" clip-rule="evenodd" d="M12.7254 14.808C12.4502 14.5324 12.2985 14.166 12.2985 13.7764C12.2985 13.5115 12.3688 13.2573 12.5001 13.0351L11.3094 11.8436C10.2144 12.8184 8.77297 13.4118 7.19544 13.4118C3.77874 13.4118 0.998943 10.6302 0.998943 7.21125C0.998943 3.79234 3.77874 1.01074 7.19544 1.01074C10.6121 1.01074 13.3919 3.79234 13.3919 7.21125C13.3919 8.7898 12.7991 10.2319 11.8248 11.3278L13.0158 12.5192C13.2378 12.3877 13.4916 12.3173 13.7563 12.3173C14.1459 12.3173 14.5121 12.4692 14.7873 12.7448L18.4322 16.3921C18.7077 16.6677 18.8594 17.0339 18.8594 17.4237C18.8594 17.8133 18.7077 18.1797 18.4322 18.4553C18.1482 18.7398 17.7748 18.8818 17.4013 18.8818C17.028 18.8818 16.6547 18.7398 16.3704 18.4553L12.7254 14.808ZM7.19271 1.7403C4.17804 1.7403 1.72527 4.1946 1.72527 7.21128C1.72527 10.2279 4.17804 12.6823 7.19271 12.6823C10.2074 12.6823 12.6602 10.2279 12.6602 7.21128C12.6602 4.1946 10.2074 1.7403 7.19271 1.7403ZM13.2395 14.2923L16.8844 17.9396C17.1687 18.2241 17.6313 18.2239 17.9156 17.9396C18.053 17.8018 18.1289 17.6186 18.1289 17.4238C18.1289 17.229 18.053 17.0458 17.9156 16.908L14.2706 13.2606C14.1329 13.1228 13.9498 13.0469 13.7551 13.0469C13.5602 13.0469 13.3772 13.1228 13.2395 13.2606C13.1018 13.3984 13.0261 13.5817 13.0261 13.7765C13.0261 13.9712 13.1018 14.1545 13.2395 14.2923Z" fill="#5C5C77"/>
<path d="M12.7254 14.808L12.3719 15.1613L12.3718 15.1611L12.7254 14.808ZM12.5001 13.0351L12.8536 12.6818L13.1274 12.9558L12.9303 13.2893L12.5001 13.0351ZM11.3094 11.8436L10.9771 11.4704L11.3294 11.1567L11.6629 11.4904L11.3094 11.8436ZM11.8248 11.3278L11.4714 11.6811L11.1383 11.3479L11.4513 10.9958L11.8248 11.3278ZM13.0158 12.5192L13.2705 12.9492L12.9366 13.147L12.6623 12.8726L13.0158 12.5192ZM14.7873 12.7448L14.4338 13.098L14.4336 13.0979L14.7873 12.7448ZM18.4322 16.3921L18.0787 16.7454L18.4322 16.3921ZM18.4322 18.4553L18.0786 18.1022L18.0787 18.1021L18.4322 18.4553ZM16.3704 18.4553L16.7239 18.1021L16.3704 18.4553ZM13.2395 14.2923L12.886 14.6455L13.2395 14.2923ZM16.8844 17.9396L16.5309 18.2929L16.8844 17.9396ZM17.9156 17.9396L18.2694 18.2926L18.2689 18.293L17.9156 17.9396ZM17.9156 16.908L18.2691 16.5547L18.2694 16.555L17.9156 16.908ZM14.2706 13.2606L14.6241 12.9074L14.2706 13.2606ZM12.3718 15.1611C12.003 14.7919 11.7987 14.2984 11.7987 13.7764H12.7983C12.7983 14.0335 12.8974 14.2729 13.0791 14.4549L12.3718 15.1611ZM11.7987 13.7764C11.7987 13.4222 11.8929 13.0802 12.0698 12.7808L12.9303 13.2893C12.8446 13.4343 12.7983 13.6007 12.7983 13.7764H11.7987ZM12.1465 13.3883L10.9559 12.1969L11.6629 11.4904L12.8536 12.6818L12.1465 13.3883ZM11.6417 12.2169C10.4591 13.2697 8.90069 13.9115 7.19544 13.9115V12.912C8.64524 12.912 9.96963 12.3672 10.9771 11.4704L11.6417 12.2169ZM7.19544 13.9115C3.50242 13.9115 0.499174 10.9059 0.499174 7.21125H1.49871C1.49871 10.3545 4.05506 12.912 7.19544 12.912V13.9115ZM0.499174 7.21125C0.499174 3.51663 3.50242 0.510973 7.19544 0.510973V1.51051C4.05506 1.51051 1.49871 4.06805 1.49871 7.21125H0.499174ZM7.19544 0.510973C10.8885 0.510973 13.8917 3.51663 13.8917 7.21125H12.8922C12.8922 4.06805 10.3358 1.51051 7.19544 1.51051V0.510973ZM13.8917 7.21125C13.8917 8.91735 13.2504 10.4764 12.1983 11.6599L11.4513 10.9958C12.3477 9.98745 12.8922 8.66226 12.8922 7.21125H13.8917ZM12.1783 10.9745L13.3692 12.1659L12.6623 12.8726L11.4714 11.6811L12.1783 10.9745ZM12.761 12.0893C13.0602 11.912 13.4021 11.8176 13.7563 11.8176V12.8171C13.5811 12.8171 13.4153 12.8634 13.2705 12.9492L12.761 12.0893ZM13.7563 11.8176C14.2785 11.8176 14.772 12.0221 15.1409 12.3916L14.4336 13.0979C14.2522 12.9162 14.0132 12.8171 13.7563 12.8171V11.8176ZM15.1408 12.3915L18.7857 16.0388L18.0787 16.7454L14.4338 13.098L15.1408 12.3915ZM18.7857 16.0388C19.1548 16.4081 19.3591 16.9013 19.3591 17.4237H18.3596C18.3596 17.1664 18.2605 16.9273 18.0787 16.7454L18.7857 16.0388ZM19.3591 17.4237C19.3591 17.9458 19.1548 18.4393 18.7857 18.8086L18.0787 18.1021C18.2605 17.9202 18.3596 17.6808 18.3596 17.4237H19.3591ZM18.7859 18.8085C18.4038 19.1911 17.9014 19.3816 17.4013 19.3816V18.3821C17.6483 18.3821 17.8925 18.2886 18.0786 18.1022L18.7859 18.8085ZM17.4013 19.3816C16.9014 19.3816 16.399 19.191 16.0169 18.8086L16.7239 18.1021C16.9103 18.2886 17.1547 18.3821 17.4013 18.3821V19.3816ZM16.0169 18.8086L12.3719 15.1613L13.0789 14.4547L16.7239 18.1021L16.0169 18.8086ZM7.19271 2.24006C4.45436 2.24006 2.22504 4.47032 2.22504 7.21128H1.2255C1.2255 3.91889 3.90173 1.24053 7.19271 1.24053V2.24006ZM2.22504 7.21128C2.22504 9.9522 4.45436 12.1825 7.19271 12.1825V13.182C3.90172 13.182 1.2255 10.5036 1.2255 7.21128H2.22504ZM7.19271 12.1825C9.93112 12.1825 12.1604 9.9522 12.1604 7.21128H13.1599C13.1599 10.5036 10.4838 13.182 7.19271 13.182V12.1825ZM12.1604 7.21128C12.1604 4.47031 9.93112 2.24006 7.19271 2.24006V1.24053C10.4838 1.24053 13.1599 3.91889 13.1599 7.21128H12.1604ZM13.593 13.939L17.2379 17.5863L16.5309 18.2929L12.886 14.6455L13.593 13.939ZM17.2379 17.5863C17.3269 17.6753 17.4729 17.6755 17.5622 17.5862L18.2689 18.293C17.7896 18.7722 17.0106 18.7729 16.5309 18.2929L17.2379 17.5863ZM17.5618 17.5866C17.6059 17.5424 17.6291 17.4861 17.6291 17.4238H18.6287C18.6287 17.751 18.5002 18.0612 18.2694 18.2926L17.5618 17.5866ZM17.6291 17.4238C17.6291 17.3615 17.6059 17.3051 17.5618 17.261L18.2694 16.555C18.5002 16.7864 18.6287 17.0965 18.6287 17.4238H17.6291ZM17.5621 17.2612L13.9171 13.6139L14.6241 12.9074L18.2691 16.5547L17.5621 17.2612ZM13.9171 13.6139C13.873 13.5698 13.8171 13.5467 13.7551 13.5467V12.5472C14.0825 12.5472 14.3927 12.6759 14.6241 12.9074L13.9171 13.6139ZM13.7551 13.5467C13.6929 13.5467 13.637 13.5699 13.593 13.6139L12.886 12.9074C13.1174 12.6758 13.4276 12.5472 13.7551 12.5472V13.5467ZM13.593 13.6139C13.5492 13.6577 13.5259 13.7138 13.5259 13.7765H12.5264C12.5264 13.4496 12.6543 13.1392 12.886 12.9074L13.593 13.6139ZM13.5259 13.7765C13.5259 13.8391 13.5492 13.8952 13.593 13.939L12.886 14.6455C12.6543 14.4138 12.5264 14.1034 12.5264 13.7765H13.5259Z" fill="#5C5C77"/>
</g>
</svg>
