<svg width="16" height="16" viewBox="0 0 16 16" fill="none" xmlns="http://www.w3.org/2000/svg">
<g clip-path="url(#clip0_4697_7719)">
<path d="M7.99853 15.7818C6.18075 15.7815 4.3653 15.6515 2.56604 15.3927C2.0726 15.3196 1.61577 15.0897 1.26305 14.7369C0.910317 14.3842 0.680389 13.9274 0.607227 13.4339C0.0892576 9.83232 0.0892576 6.17513 0.607227 2.57352C0.680389 2.08008 0.910317 1.62326 1.26305 1.27053C1.61577 0.9178 2.0726 0.687872 2.56604 0.61471C6.16768 0.0971799 9.82481 0.0971799 13.4265 0.61471C13.9199 0.687872 14.3767 0.9178 14.7294 1.27053C15.0822 1.62326 15.3121 2.08008 15.3853 2.57352C15.9032 6.17513 15.9032 9.83232 15.3853 13.4339C15.3121 13.9274 15.0822 14.3842 14.7294 14.7369C14.3767 15.0897 13.9199 15.3196 13.4265 15.3927C11.6287 15.6513 9.81479 15.7813 7.99853 15.7818Z" fill="#F8E71C"/>
<path d="M8.45672 4.39517L9.10203 6.37228C9.12971 6.47128 9.18991 6.55807 9.27294 6.61868C9.35596 6.67928 9.45697 6.71018 9.55969 6.70638H11.6421C11.7559 6.67388 11.878 6.68679 11.9825 6.74238C12.0871 6.79797 12.166 6.89192 12.2028 7.0045C12.2395 7.11707 12.2312 7.2395 12.1795 7.34606C12.1279 7.45263 12.0369 7.53502 11.9258 7.57594L10.2416 8.79791C10.1571 8.85502 10.0941 8.93873 10.0626 9.03574C10.0311 9.13275 10.0329 9.23751 10.0677 9.33338L10.7084 11.3105C10.7736 11.409 10.7982 11.5289 10.777 11.6452C10.7558 11.7614 10.6905 11.8649 10.5947 11.9341C10.4989 12.0032 10.3801 12.0327 10.2631 12.0163C10.1462 11.9999 10.04 11.9388 9.96701 11.846L8.2828 10.624C8.20239 10.5613 8.10332 10.5272 8.00134 10.5272C7.89935 10.5272 7.80029 10.5613 7.71987 10.624L6.03109 11.846C5.95559 11.9308 5.85125 11.9845 5.73835 11.9967C5.62544 12.0089 5.51205 11.9787 5.42018 11.9119C5.32832 11.8451 5.26456 11.7466 5.24128 11.6355C5.21801 11.5243 5.23689 11.4085 5.29425 11.3105L5.93498 9.33338C5.9698 9.23751 5.97161 9.13275 5.9401 9.03574C5.90859 8.93873 5.84558 8.85502 5.76106 8.79791L4.07685 7.57594C3.96573 7.53502 3.8748 7.45263 3.82316 7.34606C3.77152 7.2395 3.76319 7.11707 3.79992 7.0045C3.83666 6.89192 3.91559 6.79797 4.02015 6.74238C4.1247 6.68679 4.24674 6.67388 4.36061 6.70638H6.44299C6.54571 6.71018 6.64672 6.67928 6.72974 6.61868C6.81277 6.55807 6.87297 6.47128 6.90065 6.37228L7.54138 4.39517C7.54138 4.27379 7.5896 4.15738 7.67543 4.07155C7.76126 3.98572 7.87767 3.9375 7.99905 3.9375C8.12043 3.9375 8.23684 3.98572 8.32267 4.07155C8.4085 4.15738 8.45672 4.27379 8.45672 4.39517Z" fill="black"/>
</g>
<defs>
<clipPath id="clip0_4697_7719">
<rect width="16" height="16" fill="white"/>
</clipPath>
</defs>
</svg>
