<svg width="22" height="31" viewBox="0 0 22 31" fill="none" xmlns="http://www.w3.org/2000/svg">
<path d="M17.2247 0.310733C17.4121 0.41937 17.5571 0.588346 17.6361 0.790055C17.715 0.991765 17.7232 1.21428 17.6593 1.42126L14.211 12.6261H20.5735C20.7605 12.626 20.9434 12.6807 21.0997 12.7834C21.2559 12.8861 21.3787 13.0323 21.4528 13.2039C21.5269 13.3756 21.5492 13.5652 21.5168 13.7494C21.4844 13.9335 21.3987 14.1042 21.2705 14.2402L5.95284 30.5152C5.80463 30.6728 5.60741 30.7755 5.39331 30.8067C5.17922 30.8379 4.96089 30.7956 4.7739 30.6868C4.58691 30.5779 4.4423 30.409 4.36362 30.2075C4.28495 30.0059 4.27685 29.7837 4.34066 29.577L7.78904 18.3702H1.42648C1.2395 18.3703 1.05659 18.3156 0.900334 18.2129C0.744075 18.1102 0.621307 17.964 0.547185 17.7924C0.473063 17.6207 0.450832 17.4311 0.483237 17.2469C0.515642 17.0628 0.601263 16.8922 0.729531 16.7561L16.0472 0.481142C16.1952 0.323751 16.3921 0.221065 16.6059 0.189779C16.8197 0.158492 17.0378 0.200446 17.2247 0.308818V0.310733Z" fill="url(#paint0_linear_4697_1766)"/>
<defs>
<linearGradient id="paint0_linear_4697_1766" x1="11" y1="0.179687" x2="11" y2="30.8167" gradientUnits="userSpaceOnUse">
<stop stop-color="#FFDC00"/>
<stop offset="1" stop-color="#DDBD05"/>
</linearGradient>
</defs>
</svg>
