<svg width="16" height="20" viewBox="0 0 16 20" fill="none" xmlns="http://www.w3.org/2000/svg">
<path d="M15.5459 9.29573C15.4414 9.40061 15.3172 9.48383 15.1804 9.54061C15.0437 9.59739 14.8971 9.62662 14.749 9.62662C14.601 9.62662 14.4543 9.59739 14.3176 9.54061C14.1809 9.48383 14.0567 9.40061 13.9521 9.29573L9.12496 4.46854V18.2498C9.12496 18.5482 9.00643 18.8343 8.79545 19.0453C8.58447 19.2563 8.29833 19.3748 7.99996 19.3748C7.70159 19.3748 7.41544 19.2563 7.20446 19.0453C6.99348 18.8343 6.87496 18.5482 6.87496 18.2498V4.46854L2.0459 9.29573C1.83455 9.50708 1.54791 9.62581 1.24902 9.62581C0.950136 9.62581 0.663491 9.50708 0.452147 9.29573C0.240802 9.08439 0.12207 8.79774 0.12207 8.49886C0.12207 8.19997 0.240802 7.91333 0.452147 7.70198L7.20215 0.951981C7.30666 0.847101 7.43085 0.763884 7.5676 0.707103C7.70435 0.650322 7.85096 0.621094 7.99902 0.621094C8.14709 0.621094 8.2937 0.650322 8.43044 0.707103C8.56719 0.763884 8.69138 0.847101 8.7959 0.951981L15.5459 7.70198C15.6508 7.8065 15.734 7.93069 15.7908 8.06744C15.8476 8.20418 15.8768 8.35079 15.8768 8.49886C15.8768 8.64692 15.8476 8.79353 15.7908 8.93028C15.734 9.06702 15.6508 9.19122 15.5459 9.29573Z" fill="#007E47"/>
</svg>
