<svg width="16" height="17" viewBox="0 0 16 17" fill="none" xmlns="http://www.w3.org/2000/svg">
<path d="M14.431 14.239C13.4791 12.5934 12.0122 11.4134 10.3003 10.854C11.1471 10.3499 11.805 9.5818 12.173 8.66763C12.5409 7.75345 12.5987 6.74376 12.3372 5.7936C12.0758 4.84345 11.5098 4.00538 10.7259 3.40808C9.94213 2.81079 8.98392 2.4873 7.99846 2.4873C7.013 2.4873 6.05479 2.81079 5.27098 3.40808C4.48716 4.00538 3.92108 4.84345 3.65967 5.7936C3.39826 6.74376 3.45598 7.75345 3.82395 8.66763C4.19193 9.5818 4.84981 10.3499 5.69659 10.854C3.98471 11.4128 2.51784 12.5928 1.56596 14.239C1.53105 14.2959 1.5079 14.3593 1.49787 14.4253C1.48783 14.4913 1.49112 14.5586 1.50754 14.6233C1.52396 14.6881 1.55317 14.7488 1.59346 14.8021C1.63374 14.8553 1.68428 14.9 1.7421 14.9334C1.79992 14.9668 1.86384 14.9882 1.93009 14.9965C1.99634 15.0048 2.06358 14.9998 2.12785 14.9817C2.19211 14.9635 2.2521 14.9327 2.30426 14.8911C2.35643 14.8494 2.39972 14.7977 2.43159 14.739C3.60909 12.704 5.69034 11.489 7.99846 11.489C10.3066 11.489 12.3878 12.704 13.5653 14.739C13.5972 14.7977 13.6405 14.8494 13.6927 14.8911C13.7448 14.9327 13.8048 14.9635 13.8691 14.9817C13.9333 14.9998 14.0006 15.0048 14.0668 14.9965C14.1331 14.9882 14.197 14.9668 14.2548 14.9334C14.3126 14.9 14.3632 14.8553 14.4035 14.8021C14.4438 14.7488 14.473 14.6881 14.4894 14.6233C14.5058 14.5586 14.5091 14.4913 14.4991 14.4253C14.489 14.3593 14.4659 14.2959 14.431 14.239ZM4.49846 6.98901C4.49846 6.29677 4.70373 5.62008 5.08832 5.04451C5.4729 4.46894 6.01953 4.02033 6.65907 3.75543C7.29861 3.49052 8.00234 3.42121 8.68128 3.55626C9.36021 3.6913 9.98385 4.02465 10.4733 4.51413C10.9628 5.00361 11.2962 5.62726 11.4312 6.30619C11.5663 6.98512 11.4969 7.68886 11.232 8.3284C10.9671 8.96794 10.5185 9.51456 9.94296 9.89915C9.36738 10.2837 8.69069 10.489 7.99846 10.489C7.07051 10.488 6.18085 10.1189 5.52468 9.46278C4.86852 8.80662 4.49945 7.91696 4.49846 6.98901Z" fill="#8C9099"/>
</svg>
